<svg width="440" height="386" viewBox="0 0 440 386" fill="none" xmlns="http://www.w3.org/2000/svg">
<path d="M0.58667 200.107C0.58667 211.319 9.5459 219.328 21.1402 219.328C27.4644 219.328 32.9102 216.481 37.4776 212.031L215.081 47.5787C216.662 46.1549 218.243 45.443 220 45.443C221.757 45.443 223.513 45.9769 225.094 47.5787L402.522 212.031C407.09 216.481 412.711 219.328 419.036 219.328C430.63 219.328 439.413 211.319 439.413 200.107C439.413 193.877 437.657 188.894 431.86 183.555L366.334 122.864V13.7627C366.334 5.75368 361.064 0.592285 353.159 0.592285H320.484C312.403 0.592285 307.133 5.75368 307.133 13.7627V68.2243L247.932 13.4068C239.5 5.5757 230.013 1.83814 220 1.83814C209.987 1.83814 200.501 5.5757 192.244 13.4068L8.14053 183.555C2.34338 188.894 0.58667 193.877 0.58667 200.107Z" fill="#222"/>
<path d="M90.9584 385.408C125.964 385.408 150.228 368.912 150.228 344.552C150.228 325.85 136.13 312.711 116.661 309.354V308.683C133.445 304.943 145.145 292.954 145.145 277.897C145.145 255.935 123.087 240.11 90.9584 240.11C58.9258 240.11 36.7715 255.935 36.7715 277.801C36.7715 293.146 48.568 304.943 65.4474 308.683V309.354C45.9785 312.711 31.7844 325.754 31.7844 344.456C31.7844 368.912 55.8568 385.408 90.9584 385.408ZM90.9584 298.709C79.6415 298.709 71.5854 291.612 71.5854 281.446C71.5854 271.184 79.7374 264.183 90.9584 264.183C102.275 264.183 110.523 271.184 110.523 281.446C110.523 291.612 102.371 298.709 90.9584 298.709ZM90.9584 361.239C77.8193 361.239 68.7082 353.087 68.7082 341.866C68.7082 330.837 77.8193 322.877 90.9584 322.877C104.193 322.877 113.305 330.837 113.305 341.866C113.305 353.087 104.193 361.239 90.9584 361.239Z" fill="#222"/>
<path d="M220.815 385.408C255.533 385.408 277.879 368.72 277.879 342.825C277.879 324.124 264.644 312.327 243.737 310.217V309.546C259.561 306.381 272.413 295.064 272.413 277.322C272.413 253.825 250.738 240.11 220.623 240.11C193.386 240.11 177.082 253.153 171.615 266.58C170.369 269.553 169.889 271.951 169.889 274.924C169.889 282.98 174.78 288.735 184.371 288.735C192.139 288.735 196.359 285.953 200.291 278.568C204.511 270.321 210.937 266.293 220.815 266.293C232.803 266.293 239.709 272.526 239.709 282.309C239.709 292.379 231.461 298.996 217.938 298.996H214.773C206.429 298.996 202.018 303.888 202.018 310.889C202.018 318.082 206.429 322.877 214.773 322.877H218.13C233.475 322.877 242.106 329.111 242.106 340.716C242.106 350.69 233.667 357.787 221.582 357.787C208.443 357.787 202.209 352.704 197.126 344.072C193.674 338.51 189.358 336.112 182.645 336.112C173.054 336.112 167.204 341.675 167.204 350.498C167.204 352.992 167.779 355.869 168.93 358.554C174.493 371.981 191.372 385.408 220.815 385.408Z" fill="#222"/>
<path d="M352.59 385.408C384.718 385.408 408.215 364.692 408.215 335.345C408.215 309.45 390.473 290.653 363.523 290.653C344.822 290.653 331.587 299.764 326.312 312.711H325.64V311.177C325.449 285.186 333.888 267.06 352.015 267.06C360.358 267.06 366.209 269.841 372.347 276.459C377.238 281.35 381.17 284.227 388.075 284.227C397.282 284.227 402.365 278.185 402.365 270.704C402.365 268.115 401.79 265.717 400.639 263.128C394.789 250.468 377.717 240.014 352.015 240.014C314.995 240.014 291.977 267.827 291.977 313.286C291.977 329.974 295.238 344.36 300.993 355.101C311.926 375.721 329.86 385.408 352.59 385.408ZM352.11 358.362C339.643 358.362 329.956 348.868 329.956 336.4C329.956 324.028 339.643 315.3 352.398 315.3C364.866 315.3 374.361 324.22 374.265 336.879C374.169 348.963 364.482 358.362 352.11 358.362Z" fill="#222"/>
</svg>
